<svg xmlns="http://www.w3.org/2000/svg" xmlns:xlink="http://www.w3.org/1999/xlink" version="1.1" class="marks" width="694" height="482" viewBox="0 0 694 482"><rect width="694" height="482" fill="white"/><g fill="none" stroke-miterlimit="4" transform="translate(70,53)"><g class="mark-group role-frame root" role="graphics-object" aria-roledescription="group mark container"><g transform="translate(0,0)"><path class="background" aria-hidden="true" d="M0,0h600v390h-600Z"/><g><g class="mark-group role-axis" aria-hidden="true"><g transform="translate(0.5,390.5)"><path class="background" aria-hidden="true" d="M0,0h0v0h0Z" pointer-events="none"/><g><g class="mark-rule role-axis-grid" pointer-events="none"><line transform="translate(0,0)" x2="0" y2="-390" stroke="#f0f0f0" stroke-width="1" opacity="1"/><line transform="translate(33,0)" x2="0" y2="-390" stroke="#f0f0f0" stroke-width="1" opacity="1"/><line transform="translate(67,0)" x2="0" y2="-390" stroke="#f0f0f0" stroke-width="1" opacity="1"/><line transform="translate(100,0)" x2="0" y2="-390" stroke="#f0f0f0" stroke-width="1" opacity="1"/><line transform="translate(133,0)" x2="0" y2="-390" stroke="#f0f0f0" stroke-width="1" opacity="1"/><line transform="translate(167,0)" x2="0" y2="-390" stroke="#f0f0f0" stroke-width="1" opacity="1"/><line transform="translate(200,0)" x2="0" y2="-390" stroke="#f0f0f0" stroke-width="1" opacity="1"/><line transform="translate(233,0)" x2="0" y2="-390" stroke="#f0f0f0" stroke-width="1" opacity="1"/><line transform="translate(267,0)" x2="0" y2="-390" stroke="#f0f0f0" stroke-width="1" opacity="1"/><line transform="translate(300,0)" x2="0" y2="-390" stroke="#f0f0f0" stroke-width="1" opacity="1"/><line transform="translate(333,0)" x2="0" y2="-390" stroke="#f0f0f0" stroke-width="1" opacity="1"/><line transform="translate(367,0)" x2="0" y2="-390" stroke="#f0f0f0" stroke-width="1" opacity="1"/><line transform="translate(400,0)" x2="0" y2="-390" stroke="#f0f0f0" stroke-width="1" opacity="1"/><line transform="translate(433,0)" x2="0" y2="-390" stroke="#f0f0f0" stroke-width="1" opacity="1"/><line transform="translate(467,0)" x2="0" y2="-390" stroke="#f0f0f0" stroke-width="1" opacity="1"/><line transform="translate(500,0)" x2="0" y2="-390" stroke="#f0f0f0" stroke-width="1" opacity="1"/><line transform="translate(533,0)" x2="0" y2="-390" stroke="#f0f0f0" stroke-width="1" opacity="1"/><line transform="translate(567,0)" x2="0" y2="-390" stroke="#f0f0f0" stroke-width="1" opacity="1"/><line transform="translate(600,0)" x2="0" y2="-390" stroke="#f0f0f0" stroke-width="1" opacity="1"/></g></g><path class="foreground" aria-hidden="true" d="" pointer-events="none" display="none"/></g></g><g class="mark-group role-axis" role="graphics-symbol" aria-roledescription="axis" aria-label="X-axis titled 'Downloads' for a linear scale with values from 0 to 36"><g transform="translate(0.5,390.5)"><path class="background" aria-hidden="true" d="M0,0h0v0h0Z" pointer-events="none"/><g><g class="mark-text role-axis-label" pointer-events="none"><text text-anchor="start" transform="translate(0,10)" font-family="sans-serif" font-size="10px" fill="#999" opacity="1">0</text><text text-anchor="middle" transform="translate(33.33333333333333,10)" font-family="sans-serif" font-size="10px" fill="#999" opacity="1">2</text><text text-anchor="middle" transform="translate(66.66666666666666,10)" font-family="sans-serif" font-size="10px" fill="#999" opacity="1">4</text><text text-anchor="middle" transform="translate(100,10)" font-family="sans-serif" font-size="10px" fill="#999" opacity="1">6</text><text text-anchor="middle" transform="translate(133.33333333333331,10)" font-family="sans-serif" font-size="10px" fill="#999" opacity="1">8</text><text text-anchor="middle" transform="translate(166.66666666666669,10)" font-family="sans-serif" font-size="10px" fill="#999" opacity="1">10</text><text text-anchor="middle" transform="translate(200,10)" font-family="sans-serif" font-size="10px" fill="#999" opacity="1">12</text><text text-anchor="middle" transform="translate(233.33333333333334,10)" font-family="sans-serif" font-size="10px" fill="#999" opacity="1">14</text><text text-anchor="middle" transform="translate(266.66666666666663,10)" font-family="sans-serif" font-size="10px" fill="#999" opacity="1">16</text><text text-anchor="middle" transform="translate(300,10)" font-family="sans-serif" font-size="10px" fill="#999" opacity="1">18</text><text text-anchor="middle" transform="translate(333.33333333333337,10)" font-family="sans-serif" font-size="10px" fill="#999" opacity="1">20</text><text text-anchor="middle" transform="translate(366.6666666666667,10)" font-family="sans-serif" font-size="10px" fill="#999" opacity="1">22</text><text text-anchor="middle" transform="translate(400,10)" font-family="sans-serif" font-size="10px" fill="#999" opacity="1">24</text><text text-anchor="middle" transform="translate(433.3333333333333,10)" font-family="sans-serif" font-size="10px" fill="#999" opacity="1">26</text><text text-anchor="middle" transform="translate(466.6666666666667,10)" font-family="sans-serif" font-size="10px" fill="#999" opacity="1">28</text><text text-anchor="middle" transform="translate(500,10)" font-family="sans-serif" font-size="10px" fill="#999" opacity="1">30</text><text text-anchor="middle" transform="translate(533.3333333333333,10)" font-family="sans-serif" font-size="10px" fill="#999" opacity="1">32</text><text text-anchor="middle" transform="translate(566.6666666666666,10)" font-family="sans-serif" font-size="10px" fill="#999" opacity="1">34</text><text text-anchor="end" transform="translate(600,10)" font-family="sans-serif" font-size="10px" fill="#999" opacity="1">36</text></g><g class="mark-text role-axis-title" pointer-events="none"><text text-anchor="middle" transform="translate(300,25)" font-family="sans-serif" font-size="11px" font-weight="500" fill="#999" opacity="1">Downloads</text></g></g><path class="foreground" aria-hidden="true" d="" pointer-events="none" display="none"/></g></g><g class="mark-group role-axis" role="graphics-symbol" aria-roledescription="axis" aria-label="Y-axis for a discrete scale with 13 values: CN, US, HU, FR, DE, ending with Other"><g transform="translate(0.5,0.5)"><path class="background" aria-hidden="true" d="M0,0h0v0h0Z" pointer-events="none"/><g><g class="mark-text role-axis-label" pointer-events="none"><text text-anchor="end" transform="translate(-8,18.5)" font-family="sans-serif" font-size="12.5px" font-weight="500" fill="#333" opacity="1">CN</text><text text-anchor="end" transform="translate(-8,48.5)" font-family="sans-serif" font-size="12.5px" font-weight="500" fill="#333" opacity="1">US</text><text text-anchor="end" transform="translate(-8,78.5)" font-family="sans-serif" font-size="12.5px" font-weight="500" fill="#333" opacity="1">HU</text><text text-anchor="end" transform="translate(-8,108.5)" font-family="sans-serif" font-size="12.5px" font-weight="500" fill="#333" opacity="1">FR</text><text text-anchor="end" transform="translate(-8,138.5)" font-family="sans-serif" font-size="12.5px" font-weight="500" fill="#333" opacity="1">DE</text><text text-anchor="end" transform="translate(-8,168.5)" font-family="sans-serif" font-size="12.5px" font-weight="500" fill="#333" opacity="1">KR</text><text text-anchor="end" transform="translate(-8,198.5)" font-family="sans-serif" font-size="12.5px" font-weight="500" fill="#333" opacity="1">TW</text><text text-anchor="end" transform="translate(-8,228.5)" font-family="sans-serif" font-size="12.5px" font-weight="500" fill="#333" opacity="1">SG</text><text text-anchor="end" transform="translate(-8,258.5)" font-family="sans-serif" font-size="12.5px" font-weight="500" fill="#333" opacity="1">BR</text><text text-anchor="end" transform="translate(-8,288.5)" font-family="sans-serif" font-size="12.5px" font-weight="500" fill="#333" opacity="1">HK</text><text text-anchor="end" transform="translate(-8,318.5)" font-family="sans-serif" font-size="12.5px" font-weight="500" fill="#333" opacity="1">GN</text><text text-anchor="end" transform="translate(-8,348.5)" font-family="sans-serif" font-size="12.5px" font-weight="500" fill="#333" opacity="1">JP</text><text text-anchor="end" transform="translate(-8,378.5)" font-family="sans-serif" font-size="12.5px" font-weight="500" fill="#333" opacity="1">Other</text></g></g><path class="foreground" aria-hidden="true" d="" pointer-events="none" display="none"/></g></g><g class="mark-group role-scope" role="graphics-object" aria-roledescription="group mark container"><g transform="translate(0,5.550000000000001)"><path class="background" aria-hidden="true" d="M0,0L546,0C548.207660097976,0,550,1.792339902024,550,4L550,14.899999999999999C550,17.107660097975998,548.207660097976,18.9,546,18.9L0,18.9C0,18.9,0,18.9,0,18.9L0,0C0,0,0,0,0,0Z"/><g clip-path="url(#clip1)"><g class="mark-group role-scope" role="graphics-object" aria-roledescription="group mark container"><g transform="translate(0,0)"><path class="background" aria-hidden="true" d="M0,0h0v18.9h0Z"/><g><g class="mark-rect role-mark layer_0_marks" role="graphics-object" aria-roledescription="rect mark container"><path aria-label="Downloads: 33; country: CN; downloads: 33" role="graphics-symbol" aria-roledescription="bar" d="M0,0h550v18.9h-550Z" fill="rgb(59, 111, 214)"/></g></g><path class="foreground" aria-hidden="true" d="" display="none"/></g></g></g><path class="foreground" aria-hidden="true" d="" display="none"/></g><g transform="translate(0,35.55)"><path class="background" aria-hidden="true" d="M0,0L412.66666666666663,0C414.8743267646426,0,416.66666666666663,1.792339902024,416.66666666666663,4L416.66666666666663,14.899999999999999C416.66666666666663,17.107660097975998,414.8743267646426,18.9,412.66666666666663,18.9L0,18.9C0,18.9,0,18.9,0,18.9L0,0C0,0,0,0,0,0Z"/><g clip-path="url(#clip2)"><g class="mark-group role-scope" role="graphics-object" aria-roledescription="group mark container"><g transform="translate(0,0)"><path class="background" aria-hidden="true" d="M0,0h0v18.9h0Z"/><g><g class="mark-rect role-mark layer_0_marks" role="graphics-object" aria-roledescription="rect mark container"><path aria-label="Downloads: 25; country: US; downloads: 25" role="graphics-symbol" aria-roledescription="bar" d="M0,0h416.66666666666663v18.9h-416.66666666666663Z" fill="rgb(91, 132, 222)"/></g></g><path class="foreground" aria-hidden="true" d="" display="none"/></g></g></g><path class="foreground" aria-hidden="true" d="" display="none"/></g><g transform="translate(0,65.55)"><path class="background" aria-hidden="true" d="M0,0L96,0C98.207660097976,0,100,1.792339902024,100,4L100,14.899999999999999C100,17.107660097975998,98.207660097976,18.9,96,18.9L0,18.9C0,18.9,0,18.9,0,18.9L0,0C0,0,0,0,0,0Z"/><g clip-path="url(#clip3)"><g class="mark-group role-scope" role="graphics-object" aria-roledescription="group mark container"><g transform="translate(0,0)"><path class="background" aria-hidden="true" d="M0,0h0v18.9h0Z"/><g><g class="mark-rect role-mark layer_0_marks" role="graphics-object" aria-roledescription="rect mark container"><path aria-label="Downloads: 6; country: HU; downloads: 6" role="graphics-symbol" aria-roledescription="bar" d="M0,0h100v18.9h-100Z" fill="rgb(157, 183, 238)"/></g></g><path class="foreground" aria-hidden="true" d="" display="none"/></g></g></g><path class="foreground" aria-hidden="true" d="" display="none"/></g><g transform="translate(0,95.55)"><path class="background" aria-hidden="true" d="M0,0L62.66666666666666,0C64.87432676464266,0,66.66666666666666,1.792339902024,66.66666666666666,4L66.66666666666666,14.899999999999999C66.66666666666666,17.107660097975998,64.87432676464266,18.9,62.66666666666666,18.9L0,18.9C0,18.9,0,18.9,0,18.9L0,0C0,0,0,0,0,0Z"/><g clip-path="url(#clip4)"><g class="mark-group role-scope" role="graphics-object" aria-roledescription="group mark container"><g transform="translate(0,0)"><path class="background" aria-hidden="true" d="M0,0h0v18.9h0Z"/><g><g class="mark-rect role-mark layer_0_marks" role="graphics-object" aria-roledescription="rect mark container"><path aria-label="Downloads: 4; country: FR; downloads: 4" role="graphics-symbol" aria-roledescription="bar" d="M0,0h66.66666666666666v18.9h-66.66666666666666Z" fill="rgb(163, 189, 240)"/></g></g><path class="foreground" aria-hidden="true" d="" display="none"/></g></g></g><path class="foreground" aria-hidden="true" d="" display="none"/></g><g transform="translate(0,125.55)"><path class="background" aria-hidden="true" d="M0,0L29.33333333333333,0C31.540993431309328,0,33.33333333333333,1.792339902024,33.33333333333333,4L33.33333333333333,14.899999999999999C33.33333333333333,17.107660097975998,31.540993431309328,18.9,29.33333333333333,18.9L0,18.9C0,18.9,0,18.9,0,18.9L0,0C0,0,0,0,0,0Z"/><g clip-path="url(#clip5)"><g class="mark-group role-scope" role="graphics-object" aria-roledescription="group mark container"><g transform="translate(0,0)"><path class="background" aria-hidden="true" d="M0,0h0v18.9h0Z"/><g><g class="mark-rect role-mark layer_0_marks" role="graphics-object" aria-roledescription="rect mark container"><path aria-label="Downloads: 2; country: DE; downloads: 2" role="graphics-symbol" aria-roledescription="bar" d="M0,0h33.33333333333333v18.9h-33.33333333333333Z" fill="rgb(170, 194, 241)"/></g></g><path class="foreground" aria-hidden="true" d="" display="none"/></g></g></g><path class="foreground" aria-hidden="true" d="" display="none"/></g><g transform="translate(0,155.55)"><path class="background" aria-hidden="true" d="M0,0L29.33333333333333,0C31.540993431309328,0,33.33333333333333,1.792339902024,33.33333333333333,4L33.33333333333333,14.899999999999999C33.33333333333333,17.107660097975998,31.540993431309328,18.9,29.33333333333333,18.9L0,18.9C0,18.9,0,18.9,0,18.9L0,0C0,0,0,0,0,0Z"/><g clip-path="url(#clip6)"><g class="mark-group role-scope" role="graphics-object" aria-roledescription="group mark container"><g transform="translate(0,0)"><path class="background" aria-hidden="true" d="M0,0h0v18.9h0Z"/><g><g class="mark-rect role-mark layer_0_marks" role="graphics-object" aria-roledescription="rect mark container"><path aria-label="Downloads: 2; country: KR; downloads: 2" role="graphics-symbol" aria-roledescription="bar" d="M0,0h33.33333333333333v18.9h-33.33333333333333Z" fill="rgb(170, 194, 241)"/></g></g><path class="foreground" aria-hidden="true" d="" display="none"/></g></g></g><path class="foreground" aria-hidden="true" d="" display="none"/></g><g transform="translate(0,185.55)"><path class="background" aria-hidden="true" d="M0,0L29.33333333333333,0C31.540993431309328,0,33.33333333333333,1.792339902024,33.33333333333333,4L33.33333333333333,14.899999999999999C33.33333333333333,17.107660097975998,31.540993431309328,18.9,29.33333333333333,18.9L0,18.9C0,18.9,0,18.9,0,18.9L0,0C0,0,0,0,0,0Z"/><g clip-path="url(#clip7)"><g class="mark-group role-scope" role="graphics-object" aria-roledescription="group mark container"><g transform="translate(0,0)"><path class="background" aria-hidden="true" d="M0,0h0v18.9h0Z"/><g><g class="mark-rect role-mark layer_0_marks" role="graphics-object" aria-roledescription="rect mark container"><path aria-label="Downloads: 2; country: TW; downloads: 2" role="graphics-symbol" aria-roledescription="bar" d="M0,0h33.33333333333333v18.9h-33.33333333333333Z" fill="rgb(170, 194, 241)"/></g></g><path class="foreground" aria-hidden="true" d="" display="none"/></g></g></g><path class="foreground" aria-hidden="true" d="" display="none"/></g><g transform="translate(0,215.55)"><path class="background" aria-hidden="true" d="M0,0L12.666666666666664,0C14.874326764642664,0,16.666666666666664,1.792339902024,16.666666666666664,4L16.666666666666664,14.899999999999999C16.666666666666664,17.107660097975998,14.874326764642664,18.9,12.666666666666664,18.9L0,18.9C0,18.9,0,18.9,0,18.9L0,0C0,0,0,0,0,0Z"/><g clip-path="url(#clip8)"><g class="mark-group role-scope" role="graphics-object" aria-roledescription="group mark container"><g transform="translate(0,0)"><path class="background" aria-hidden="true" d="M0,0h0v18.9h0Z"/><g><g class="mark-rect role-mark layer_0_marks" role="graphics-object" aria-roledescription="rect mark container"><path aria-label="Downloads: 1; country: SG; downloads: 1" role="graphics-symbol" aria-roledescription="bar" d="M0,0h16.666666666666664v18.9h-16.666666666666664Z" fill="rgb(174, 197, 242)"/></g></g><path class="foreground" aria-hidden="true" d="" display="none"/></g></g></g><path class="foreground" aria-hidden="true" d="" display="none"/></g><g transform="translate(0,245.55)"><path class="background" aria-hidden="true" d="M0,0L12.666666666666664,0C14.874326764642664,0,16.666666666666664,1.792339902024,16.666666666666664,4L16.666666666666664,14.899999999999999C16.666666666666664,17.107660097975998,14.874326764642664,18.9,12.666666666666664,18.9L0,18.9C0,18.9,0,18.9,0,18.9L0,0C0,0,0,0,0,0Z"/><g clip-path="url(#clip9)"><g class="mark-group role-scope" role="graphics-object" aria-roledescription="group mark container"><g transform="translate(0,0)"><path class="background" aria-hidden="true" d="M0,0h0v18.9h0Z"/><g><g class="mark-rect role-mark layer_0_marks" role="graphics-object" aria-roledescription="rect mark container"><path aria-label="Downloads: 1; country: BR; downloads: 1" role="graphics-symbol" aria-roledescription="bar" d="M0,0h16.666666666666664v18.9h-16.666666666666664Z" fill="rgb(174, 197, 242)"/></g></g><path class="foreground" aria-hidden="true" d="" display="none"/></g></g></g><path class="foreground" aria-hidden="true" d="" display="none"/></g><g transform="translate(0,275.55)"><path class="background" aria-hidden="true" d="M0,0L12.666666666666664,0C14.874326764642664,0,16.666666666666664,1.792339902024,16.666666666666664,4L16.666666666666664,14.899999999999999C16.666666666666664,17.107660097975998,14.874326764642664,18.9,12.666666666666664,18.9L0,18.9C0,18.9,0,18.9,0,18.9L0,0C0,0,0,0,0,0Z"/><g clip-path="url(#clip10)"><g class="mark-group role-scope" role="graphics-object" aria-roledescription="group mark container"><g transform="translate(0,0)"><path class="background" aria-hidden="true" d="M0,0h0v18.9h0Z"/><g><g class="mark-rect role-mark layer_0_marks" role="graphics-object" aria-roledescription="rect mark container"><path aria-label="Downloads: 1; country: HK; downloads: 1" role="graphics-symbol" aria-roledescription="bar" d="M0,0h16.666666666666664v18.9h-16.666666666666664Z" fill="rgb(174, 197, 242)"/></g></g><path class="foreground" aria-hidden="true" d="" display="none"/></g></g></g><path class="foreground" aria-hidden="true" d="" display="none"/></g><g transform="translate(0,305.55)"><path class="background" aria-hidden="true" d="M0,0L12.666666666666664,0C14.874326764642664,0,16.666666666666664,1.792339902024,16.666666666666664,4L16.666666666666664,14.899999999999999C16.666666666666664,17.107660097975998,14.874326764642664,18.9,12.666666666666664,18.9L0,18.9C0,18.9,0,18.9,0,18.9L0,0C0,0,0,0,0,0Z"/><g clip-path="url(#clip11)"><g class="mark-group role-scope" role="graphics-object" aria-roledescription="group mark container"><g transform="translate(0,0)"><path class="background" aria-hidden="true" d="M0,0h0v18.9h0Z"/><g><g class="mark-rect role-mark layer_0_marks" role="graphics-object" aria-roledescription="rect mark container"><path aria-label="Downloads: 1; country: GN; downloads: 1" role="graphics-symbol" aria-roledescription="bar" d="M0,0h16.666666666666664v18.9h-16.666666666666664Z" fill="rgb(174, 197, 242)"/></g></g><path class="foreground" aria-hidden="true" d="" display="none"/></g></g></g><path class="foreground" aria-hidden="true" d="" display="none"/></g><g transform="translate(0,335.55)"><path class="background" aria-hidden="true" d="M0,0L12.666666666666664,0C14.874326764642664,0,16.666666666666664,1.792339902024,16.666666666666664,4L16.666666666666664,14.899999999999999C16.666666666666664,17.107660097975998,14.874326764642664,18.9,12.666666666666664,18.9L0,18.9C0,18.9,0,18.9,0,18.9L0,0C0,0,0,0,0,0Z"/><g clip-path="url(#clip12)"><g class="mark-group role-scope" role="graphics-object" aria-roledescription="group mark container"><g transform="translate(0,0)"><path class="background" aria-hidden="true" d="M0,0h0v18.9h0Z"/><g><g class="mark-rect role-mark layer_0_marks" role="graphics-object" aria-roledescription="rect mark container"><path aria-label="Downloads: 1; country: JP; downloads: 1" role="graphics-symbol" aria-roledescription="bar" d="M0,0h16.666666666666664v18.9h-16.666666666666664Z" fill="rgb(174, 197, 242)"/></g></g><path class="foreground" aria-hidden="true" d="" display="none"/></g></g></g><path class="foreground" aria-hidden="true" d="" display="none"/></g><g transform="translate(0,365.55)"><path class="background" aria-hidden="true" d="M0,0L12.666666666666664,0C14.874326764642664,0,16.666666666666664,1.792339902024,16.666666666666664,4L16.666666666666664,14.899999999999999C16.666666666666664,17.107660097975998,14.874326764642664,18.9,12.666666666666664,18.9L0,18.9C0,18.9,0,18.9,0,18.9L0,0C0,0,0,0,0,0Z"/><g clip-path="url(#clip13)"><g class="mark-group role-scope" role="graphics-object" aria-roledescription="group mark container"><g transform="translate(0,0)"><path class="background" aria-hidden="true" d="M0,0h0v18.9h0Z"/><g><g class="mark-rect role-mark layer_0_marks" role="graphics-object" aria-roledescription="rect mark container"><path aria-label="Downloads: 1; country: Other; downloads: 1" role="graphics-symbol" aria-roledescription="bar" d="M0,0h16.666666666666664v18.9h-16.666666666666664Z" fill="rgb(174, 197, 242)"/></g></g><path class="foreground" aria-hidden="true" d="" display="none"/></g></g></g><path class="foreground" aria-hidden="true" d="" display="none"/></g></g><g class="mark-text role-mark layer_1_marks" role="graphics-object" aria-roledescription="text mark container"><text aria-label="Downloads: 33; country: CN; downloads: 33" role="graphics-symbol" aria-roledescription="text mark" text-anchor="start" transform="translate(556,19)" font-family="sans-serif" font-size="12px" font-weight="600" fill="#555">33</text><text aria-label="Downloads: 25; country: US; downloads: 25" role="graphics-symbol" aria-roledescription="text mark" text-anchor="start" transform="translate(422.66666666666663,49)" font-family="sans-serif" font-size="12px" font-weight="600" fill="#555">25</text><text aria-label="Downloads: 6; country: HU; downloads: 6" role="graphics-symbol" aria-roledescription="text mark" text-anchor="start" transform="translate(106,79)" font-family="sans-serif" font-size="12px" font-weight="600" fill="#555">6</text><text aria-label="Downloads: 4; country: FR; downloads: 4" role="graphics-symbol" aria-roledescription="text mark" text-anchor="start" transform="translate(72.66666666666666,109)" font-family="sans-serif" font-size="12px" font-weight="600" fill="#555">4</text><text aria-label="Downloads: 2; country: DE; downloads: 2" role="graphics-symbol" aria-roledescription="text mark" text-anchor="start" transform="translate(39.33333333333333,139)" font-family="sans-serif" font-size="12px" font-weight="600" fill="#555">2</text><text aria-label="Downloads: 2; country: KR; downloads: 2" role="graphics-symbol" aria-roledescription="text mark" text-anchor="start" transform="translate(39.33333333333333,169)" font-family="sans-serif" font-size="12px" font-weight="600" fill="#555">2</text><text aria-label="Downloads: 2; country: TW; downloads: 2" role="graphics-symbol" aria-roledescription="text mark" text-anchor="start" transform="translate(39.33333333333333,199)" font-family="sans-serif" font-size="12px" font-weight="600" fill="#555">2</text><text aria-label="Downloads: 1; country: SG; downloads: 1" role="graphics-symbol" aria-roledescription="text mark" text-anchor="start" transform="translate(22.666666666666664,229)" font-family="sans-serif" font-size="12px" font-weight="600" fill="#555">1</text><text aria-label="Downloads: 1; country: BR; downloads: 1" role="graphics-symbol" aria-roledescription="text mark" text-anchor="start" transform="translate(22.666666666666664,259)" font-family="sans-serif" font-size="12px" font-weight="600" fill="#555">1</text><text aria-label="Downloads: 1; country: HK; downloads: 1" role="graphics-symbol" aria-roledescription="text mark" text-anchor="start" transform="translate(22.666666666666664,289)" font-family="sans-serif" font-size="12px" font-weight="600" fill="#555">1</text><text aria-label="Downloads: 1; country: GN; downloads: 1" role="graphics-symbol" aria-roledescription="text mark" text-anchor="start" transform="translate(22.666666666666664,319)" font-family="sans-serif" font-size="12px" font-weight="600" fill="#555">1</text><text aria-label="Downloads: 1; country: JP; downloads: 1" role="graphics-symbol" aria-roledescription="text mark" text-anchor="start" transform="translate(22.666666666666664,349)" font-family="sans-serif" font-size="12px" font-weight="600" fill="#555">1</text><text aria-label="Downloads: 1; country: Other; downloads: 1" role="graphics-symbol" aria-roledescription="text mark" text-anchor="start" transform="translate(22.666666666666664,379)" font-family="sans-serif" font-size="12px" font-weight="600" fill="#555">1</text></g><g class="mark-group role-title"><g transform="translate(-58,-41)"><path class="background" aria-hidden="true" d="M0,0h0v0h0Z" pointer-events="none"/><g><g class="mark-text role-title-text" role="graphics-symbol" aria-roledescription="title" aria-label="Title text 'Mermaid Code — downloads by country/region (all-time)'" pointer-events="none"><text text-anchor="start" transform="translate(0,12)" font-family="sans-serif" font-size="15px" font-weight="600" fill="#000" opacity="1">Mermaid Code — downloads by country/region (all-time)</text></g><g class="mark-text role-title-subtitle" role="graphics-symbol" aria-roledescription="subtitle" aria-label="Subtitle text 'manual installer downloads from the release CDN, by client country/region'" pointer-events="none"><text text-anchor="start" transform="translate(0,27)" font-family="sans-serif" font-size="11px" fill="#888" opacity="1">manual installer downloads from the release CDN, by client country/region</text></g></g><path class="foreground" aria-hidden="true" d="" pointer-events="none" display="none"/></g></g></g><path class="foreground" aria-hidden="true" d="" display="none"/></g></g></g><defs><clipPath id="clip1"><path d="M0,0L546,0C548.207660097976,0,550,1.792339902024,550,4L550,14.899999999999999C550,17.107660097975998,548.207660097976,18.9,546,18.9L0,18.9C0,18.9,0,18.9,0,18.9L0,0C0,0,0,0,0,0Z"/></clipPath><clipPath id="clip2"><path d="M0,0L412.66666666666663,0C414.8743267646426,0,416.66666666666663,1.792339902024,416.66666666666663,4L416.66666666666663,14.899999999999999C416.66666666666663,17.107660097975998,414.8743267646426,18.9,412.66666666666663,18.9L0,18.9C0,18.9,0,18.9,0,18.9L0,0C0,0,0,0,0,0Z"/></clipPath><clipPath id="clip3"><path d="M0,0L96,0C98.207660097976,0,100,1.792339902024,100,4L100,14.899999999999999C100,17.107660097975998,98.207660097976,18.9,96,18.9L0,18.9C0,18.9,0,18.9,0,18.9L0,0C0,0,0,0,0,0Z"/></clipPath><clipPath id="clip4"><path d="M0,0L62.66666666666666,0C64.87432676464266,0,66.66666666666666,1.792339902024,66.66666666666666,4L66.66666666666666,14.899999999999999C66.66666666666666,17.107660097975998,64.87432676464266,18.9,62.66666666666666,18.9L0,18.9C0,18.9,0,18.9,0,18.9L0,0C0,0,0,0,0,0Z"/></clipPath><clipPath id="clip5"><path d="M0,0L29.33333333333333,0C31.540993431309328,0,33.33333333333333,1.792339902024,33.33333333333333,4L33.33333333333333,14.899999999999999C33.33333333333333,17.107660097975998,31.540993431309328,18.9,29.33333333333333,18.9L0,18.9C0,18.9,0,18.9,0,18.9L0,0C0,0,0,0,0,0Z"/></clipPath><clipPath id="clip6"><path d="M0,0L29.33333333333333,0C31.540993431309328,0,33.33333333333333,1.792339902024,33.33333333333333,4L33.33333333333333,14.899999999999999C33.33333333333333,17.107660097975998,31.540993431309328,18.9,29.33333333333333,18.9L0,18.9C0,18.9,0,18.9,0,18.9L0,0C0,0,0,0,0,0Z"/></clipPath><clipPath id="clip7"><path d="M0,0L29.33333333333333,0C31.540993431309328,0,33.33333333333333,1.792339902024,33.33333333333333,4L33.33333333333333,14.899999999999999C33.33333333333333,17.107660097975998,31.540993431309328,18.9,29.33333333333333,18.9L0,18.9C0,18.9,0,18.9,0,18.9L0,0C0,0,0,0,0,0Z"/></clipPath><clipPath id="clip8"><path d="M0,0L12.666666666666664,0C14.874326764642664,0,16.666666666666664,1.792339902024,16.666666666666664,4L16.666666666666664,14.899999999999999C16.666666666666664,17.107660097975998,14.874326764642664,18.9,12.666666666666664,18.9L0,18.9C0,18.9,0,18.9,0,18.9L0,0C0,0,0,0,0,0Z"/></clipPath><clipPath id="clip9"><path d="M0,0L12.666666666666664,0C14.874326764642664,0,16.666666666666664,1.792339902024,16.666666666666664,4L16.666666666666664,14.899999999999999C16.666666666666664,17.107660097975998,14.874326764642664,18.9,12.666666666666664,18.9L0,18.9C0,18.9,0,18.9,0,18.9L0,0C0,0,0,0,0,0Z"/></clipPath><clipPath id="clip10"><path d="M0,0L12.666666666666664,0C14.874326764642664,0,16.666666666666664,1.792339902024,16.666666666666664,4L16.666666666666664,14.899999999999999C16.666666666666664,17.107660097975998,14.874326764642664,18.9,12.666666666666664,18.9L0,18.9C0,18.9,0,18.9,0,18.9L0,0C0,0,0,0,0,0Z"/></clipPath><clipPath id="clip11"><path d="M0,0L12.666666666666664,0C14.874326764642664,0,16.666666666666664,1.792339902024,16.666666666666664,4L16.666666666666664,14.899999999999999C16.666666666666664,17.107660097975998,14.874326764642664,18.9,12.666666666666664,18.9L0,18.9C0,18.9,0,18.9,0,18.9L0,0C0,0,0,0,0,0Z"/></clipPath><clipPath id="clip12"><path d="M0,0L12.666666666666664,0C14.874326764642664,0,16.666666666666664,1.792339902024,16.666666666666664,4L16.666666666666664,14.899999999999999C16.666666666666664,17.107660097975998,14.874326764642664,18.9,12.666666666666664,18.9L0,18.9C0,18.9,0,18.9,0,18.9L0,0C0,0,0,0,0,0Z"/></clipPath><clipPath id="clip13"><path d="M0,0L12.666666666666664,0C14.874326764642664,0,16.666666666666664,1.792339902024,16.666666666666664,4L16.666666666666664,14.899999999999999C16.666666666666664,17.107660097975998,14.874326764642664,18.9,12.666666666666664,18.9L0,18.9C0,18.9,0,18.9,0,18.9L0,0C0,0,0,0,0,0Z"/></clipPath></defs></svg>