<svg xmlns="http://www.w3.org/2000/svg" xmlns:xlink="http://www.w3.org/1999/xlink" version="1.1" class="marks" width="694" height="482" viewBox="0 0 694 482"><rect width="694" height="482" fill="white"/><g fill="none" stroke-miterlimit="4" transform="translate(70,53)"><g class="mark-group role-frame root" role="graphics-object" aria-roledescription="group mark container"><g transform="translate(0,0)"><path class="background" aria-hidden="true" d="M0,0h600v390h-600Z"/><g><g class="mark-group role-axis" aria-hidden="true"><g transform="translate(0.5,390.5)"><path class="background" aria-hidden="true" d="M0,0h0v0h0Z" pointer-events="none"/><g><g class="mark-rule role-axis-grid" pointer-events="none"><line transform="translate(0,0)" x2="0" y2="-390" stroke="#f0f0f0" stroke-width="1" opacity="1"/><line transform="translate(32,0)" x2="0" y2="-390" stroke="#f0f0f0" stroke-width="1" opacity="1"/><line transform="translate(65,0)" x2="0" y2="-390" stroke="#f0f0f0" stroke-width="1" opacity="1"/><line transform="translate(97,0)" x2="0" y2="-390" stroke="#f0f0f0" stroke-width="1" opacity="1"/><line transform="translate(130,0)" x2="0" y2="-390" stroke="#f0f0f0" stroke-width="1" opacity="1"/><line transform="translate(162,0)" x2="0" y2="-390" stroke="#f0f0f0" stroke-width="1" opacity="1"/><line transform="translate(195,0)" x2="0" y2="-390" stroke="#f0f0f0" stroke-width="1" opacity="1"/><line transform="translate(227,0)" x2="0" y2="-390" stroke="#f0f0f0" stroke-width="1" opacity="1"/><line transform="translate(259,0)" x2="0" y2="-390" stroke="#f0f0f0" stroke-width="1" opacity="1"/><line transform="translate(292,0)" x2="0" y2="-390" stroke="#f0f0f0" stroke-width="1" opacity="1"/><line transform="translate(324,0)" x2="0" y2="-390" stroke="#f0f0f0" stroke-width="1" opacity="1"/><line transform="translate(357,0)" x2="0" y2="-390" stroke="#f0f0f0" stroke-width="1" opacity="1"/><line transform="translate(389,0)" x2="0" y2="-390" stroke="#f0f0f0" stroke-width="1" opacity="1"/><line transform="translate(422,0)" x2="0" y2="-390" stroke="#f0f0f0" stroke-width="1" opacity="1"/><line transform="translate(454,0)" x2="0" y2="-390" stroke="#f0f0f0" stroke-width="1" opacity="1"/><line transform="translate(486,0)" x2="0" y2="-390" stroke="#f0f0f0" stroke-width="1" opacity="1"/><line transform="translate(519,0)" x2="0" y2="-390" stroke="#f0f0f0" stroke-width="1" opacity="1"/><line transform="translate(551,0)" x2="0" y2="-390" stroke="#f0f0f0" stroke-width="1" opacity="1"/><line transform="translate(584,0)" x2="0" y2="-390" stroke="#f0f0f0" stroke-width="1" opacity="1"/></g></g><path class="foreground" aria-hidden="true" d="" pointer-events="none" display="none"/></g></g><g class="mark-group role-axis" role="graphics-symbol" aria-roledescription="axis" aria-label="X-axis titled 'Downloads' for a linear scale with values from 0 to 37"><g transform="translate(0.5,390.5)"><path class="background" aria-hidden="true" d="M0,0h0v0h0Z" pointer-events="none"/><g><g class="mark-text role-axis-label" pointer-events="none"><text text-anchor="start" transform="translate(0,10)" font-family="sans-serif" font-size="10px" fill="#999" opacity="1">0</text><text text-anchor="middle" transform="translate(32.432432432432435,10)" font-family="sans-serif" font-size="10px" fill="#999" opacity="1">2</text><text text-anchor="middle" transform="translate(64.86486486486487,10)" font-family="sans-serif" font-size="10px" fill="#999" opacity="1">4</text><text text-anchor="middle" transform="translate(97.2972972972973,10)" font-family="sans-serif" font-size="10px" fill="#999" opacity="1">6</text><text text-anchor="middle" transform="translate(129.72972972972974,10)" font-family="sans-serif" font-size="10px" fill="#999" opacity="1">8</text><text text-anchor="middle" transform="translate(162.16216216216216,10)" font-family="sans-serif" font-size="10px" fill="#999" opacity="1">10</text><text text-anchor="middle" transform="translate(194.5945945945946,10)" font-family="sans-serif" font-size="10px" fill="#999" opacity="1">12</text><text text-anchor="middle" transform="translate(227.02702702702703,10)" font-family="sans-serif" font-size="10px" fill="#999" opacity="1">14</text><text text-anchor="middle" transform="translate(259.4594594594595,10)" font-family="sans-serif" font-size="10px" fill="#999" opacity="1">16</text><text text-anchor="middle" transform="translate(291.89189189189193,10)" font-family="sans-serif" font-size="10px" fill="#999" opacity="1">18</text><text text-anchor="middle" transform="translate(324.3243243243243,10)" font-family="sans-serif" font-size="10px" fill="#999" opacity="1">20</text><text text-anchor="middle" transform="translate(356.7567567567568,10)" font-family="sans-serif" font-size="10px" fill="#999" opacity="1">22</text><text text-anchor="middle" transform="translate(389.1891891891892,10)" font-family="sans-serif" font-size="10px" fill="#999" opacity="1">24</text><text text-anchor="middle" transform="translate(421.62162162162167,10)" font-family="sans-serif" font-size="10px" fill="#999" opacity="1">26</text><text text-anchor="middle" transform="translate(454.05405405405406,10)" font-family="sans-serif" font-size="10px" fill="#999" opacity="1">28</text><text text-anchor="middle" transform="translate(486.4864864864865,10)" font-family="sans-serif" font-size="10px" fill="#999" opacity="1">30</text><text text-anchor="middle" transform="translate(518.918918918919,10)" font-family="sans-serif" font-size="10px" fill="#999" opacity="1">32</text><text text-anchor="middle" transform="translate(551.3513513513514,10)" font-family="sans-serif" font-size="10px" fill="#999" opacity="1">34</text><text text-anchor="middle" transform="translate(583.7837837837839,10)" font-family="sans-serif" font-size="10px" fill="#999" opacity="1">36</text></g><g class="mark-text role-axis-title" pointer-events="none"><text text-anchor="middle" transform="translate(300,25)" font-family="sans-serif" font-size="11px" font-weight="500" fill="#999" opacity="1">Downloads</text></g></g><path class="foreground" aria-hidden="true" d="" pointer-events="none" display="none"/></g></g><g class="mark-group role-axis" role="graphics-symbol" aria-roledescription="axis" aria-label="Y-axis for a discrete scale with 13 values: CN, US, HU, FR, DE, ending with Other"><g transform="translate(0.5,0.5)"><path class="background" aria-hidden="true" d="M0,0h0v0h0Z" pointer-events="none"/><g><g class="mark-text role-axis-label" pointer-events="none"><text text-anchor="end" transform="translate(-8,18.5)" font-family="sans-serif" font-size="12.5px" font-weight="500" fill="#333" opacity="1">CN</text><text text-anchor="end" transform="translate(-8,48.5)" font-family="sans-serif" font-size="12.5px" font-weight="500" fill="#333" opacity="1">US</text><text text-anchor="end" transform="translate(-8,78.5)" font-family="sans-serif" font-size="12.5px" font-weight="500" fill="#333" opacity="1">HU</text><text text-anchor="end" transform="translate(-8,108.5)" font-family="sans-serif" font-size="12.5px" font-weight="500" fill="#333" opacity="1">FR</text><text text-anchor="end" transform="translate(-8,138.5)" font-family="sans-serif" font-size="12.5px" font-weight="500" fill="#333" opacity="1">DE</text><text text-anchor="end" transform="translate(-8,168.5)" font-family="sans-serif" font-size="12.5px" font-weight="500" fill="#333" opacity="1">KR</text><text text-anchor="end" transform="translate(-8,198.5)" font-family="sans-serif" font-size="12.5px" font-weight="500" fill="#333" opacity="1">TW</text><text text-anchor="end" transform="translate(-8,228.5)" font-family="sans-serif" font-size="12.5px" font-weight="500" fill="#333" opacity="1">GR</text><text text-anchor="end" transform="translate(-8,258.5)" font-family="sans-serif" font-size="12.5px" font-weight="500" fill="#333" opacity="1">SG</text><text text-anchor="end" transform="translate(-8,288.5)" font-family="sans-serif" font-size="12.5px" font-weight="500" fill="#333" opacity="1">BR</text><text text-anchor="end" transform="translate(-8,318.5)" font-family="sans-serif" font-size="12.5px" font-weight="500" fill="#333" opacity="1">HK</text><text text-anchor="end" transform="translate(-8,348.5)" font-family="sans-serif" font-size="12.5px" font-weight="500" fill="#333" opacity="1">GN</text><text text-anchor="end" transform="translate(-8,378.5)" font-family="sans-serif" font-size="12.5px" font-weight="500" fill="#333" opacity="1">Other</text></g></g><path class="foreground" aria-hidden="true" d="" pointer-events="none" display="none"/></g></g><g class="mark-group role-scope" role="graphics-object" aria-roledescription="group mark container"><g transform="translate(0,5.550000000000001)"><path class="background" aria-hidden="true" d="M0,0L547.3513513513514,0C549.5590114493274,0,551.3513513513514,1.792339902024,551.3513513513514,4L551.3513513513514,14.899999999999999C551.3513513513514,17.107660097975998,549.5590114493274,18.9,547.3513513513514,18.9L0,18.9C0,18.9,0,18.9,0,18.9L0,0C0,0,0,0,0,0Z"/><g clip-path="url(#clip1)"><g class="mark-group role-scope" role="graphics-object" aria-roledescription="group mark container"><g transform="translate(0,0)"><path class="background" aria-hidden="true" d="M0,0h0v18.9h0Z"/><g><g class="mark-rect role-mark layer_0_marks" role="graphics-object" aria-roledescription="rect mark container"><path aria-label="Downloads: 34; country: CN; downloads: 34" role="graphics-symbol" aria-roledescription="bar" d="M0,0h551.3513513513514v18.9h-551.3513513513514Z" fill="rgb(59, 111, 214)"/></g></g><path class="foreground" aria-hidden="true" d="" display="none"/></g></g></g><path class="foreground" aria-hidden="true" d="" display="none"/></g><g transform="translate(0,35.55)"><path class="background" aria-hidden="true" d="M0,0L401.4054054054054,0C403.6130655033814,0,405.4054054054054,1.792339902024,405.4054054054054,4L405.4054054054054,14.899999999999999C405.4054054054054,17.107660097975998,403.6130655033814,18.9,401.4054054054054,18.9L0,18.9C0,18.9,0,18.9,0,18.9L0,0C0,0,0,0,0,0Z"/><g clip-path="url(#clip2)"><g class="mark-group role-scope" role="graphics-object" aria-roledescription="group mark container"><g transform="translate(0,0)"><path class="background" aria-hidden="true" d="M0,0h0v18.9h0Z"/><g><g class="mark-rect role-mark layer_0_marks" role="graphics-object" aria-roledescription="rect mark container"><path aria-label="Downloads: 25; country: US; downloads: 25" role="graphics-symbol" aria-roledescription="bar" d="M0,0h405.4054054054054v18.9h-405.4054054054054Z" fill="rgb(93, 134, 222)"/></g></g><path class="foreground" aria-hidden="true" d="" display="none"/></g></g></g><path class="foreground" aria-hidden="true" d="" display="none"/></g><g transform="translate(0,65.55)"><path class="background" aria-hidden="true" d="M0,0L93.2972972972973,0C95.50495739527331,0,97.2972972972973,1.792339902024,97.2972972972973,4L97.2972972972973,14.899999999999999C97.2972972972973,17.107660097975998,95.50495739527331,18.9,93.2972972972973,18.9L0,18.9C0,18.9,0,18.9,0,18.9L0,0C0,0,0,0,0,0Z"/><g clip-path="url(#clip3)"><g class="mark-group role-scope" role="graphics-object" aria-roledescription="group mark container"><g transform="translate(0,0)"><path class="background" aria-hidden="true" d="M0,0h0v18.9h0Z"/><g><g class="mark-rect role-mark layer_0_marks" role="graphics-object" aria-roledescription="rect mark container"><path aria-label="Downloads: 6; country: HU; downloads: 6" role="graphics-symbol" aria-roledescription="bar" d="M0,0h97.2972972972973v18.9h-97.2972972972973Z" fill="rgb(157, 184, 238)"/></g></g><path class="foreground" aria-hidden="true" d="" display="none"/></g></g></g><path class="foreground" aria-hidden="true" d="" display="none"/></g><g transform="translate(0,95.55)"><path class="background" aria-hidden="true" d="M0,0L60.86486486486487,0C63.07252496284087,0,64.86486486486487,1.792339902024,64.86486486486487,4L64.86486486486487,14.899999999999999C64.86486486486487,17.107660097975998,63.07252496284087,18.9,60.86486486486487,18.9L0,18.9C0,18.9,0,18.9,0,18.9L0,0C0,0,0,0,0,0Z"/><g clip-path="url(#clip4)"><g class="mark-group role-scope" role="graphics-object" aria-roledescription="group mark container"><g transform="translate(0,0)"><path class="background" aria-hidden="true" d="M0,0h0v18.9h0Z"/><g><g class="mark-rect role-mark layer_0_marks" role="graphics-object" aria-roledescription="rect mark container"><path aria-label="Downloads: 4; country: FR; downloads: 4" role="graphics-symbol" aria-roledescription="bar" d="M0,0h64.86486486486487v18.9h-64.86486486486487Z" fill="rgb(164, 189, 240)"/></g></g><path class="foreground" aria-hidden="true" d="" display="none"/></g></g></g><path class="foreground" aria-hidden="true" d="" display="none"/></g><g transform="translate(0,125.55)"><path class="background" aria-hidden="true" d="M0,0L28.432432432432435,0C30.640092530408435,0,32.432432432432435,1.792339902024,32.432432432432435,4L32.432432432432435,14.899999999999999C32.432432432432435,17.107660097975998,30.640092530408435,18.9,28.432432432432435,18.9L0,18.9C0,18.9,0,18.9,0,18.9L0,0C0,0,0,0,0,0Z"/><g clip-path="url(#clip5)"><g class="mark-group role-scope" role="graphics-object" aria-roledescription="group mark container"><g transform="translate(0,0)"><path class="background" aria-hidden="true" d="M0,0h0v18.9h0Z"/><g><g class="mark-rect role-mark layer_0_marks" role="graphics-object" aria-roledescription="rect mark container"><path aria-label="Downloads: 2; country: DE; downloads: 2" role="graphics-symbol" aria-roledescription="bar" d="M0,0h32.432432432432435v18.9h-32.432432432432435Z" fill="rgb(171, 194, 241)"/></g></g><path class="foreground" aria-hidden="true" d="" display="none"/></g></g></g><path class="foreground" aria-hidden="true" d="" display="none"/></g><g transform="translate(0,155.55)"><path class="background" aria-hidden="true" d="M0,0L28.432432432432435,0C30.640092530408435,0,32.432432432432435,1.792339902024,32.432432432432435,4L32.432432432432435,14.899999999999999C32.432432432432435,17.107660097975998,30.640092530408435,18.9,28.432432432432435,18.9L0,18.9C0,18.9,0,18.9,0,18.9L0,0C0,0,0,0,0,0Z"/><g clip-path="url(#clip6)"><g class="mark-group role-scope" role="graphics-object" aria-roledescription="group mark container"><g transform="translate(0,0)"><path class="background" aria-hidden="true" d="M0,0h0v18.9h0Z"/><g><g class="mark-rect role-mark layer_0_marks" role="graphics-object" aria-roledescription="rect mark container"><path aria-label="Downloads: 2; country: KR; downloads: 2" role="graphics-symbol" aria-roledescription="bar" d="M0,0h32.432432432432435v18.9h-32.432432432432435Z" fill="rgb(171, 194, 241)"/></g></g><path class="foreground" aria-hidden="true" d="" display="none"/></g></g></g><path class="foreground" aria-hidden="true" d="" display="none"/></g><g transform="translate(0,185.55)"><path class="background" aria-hidden="true" d="M0,0L28.432432432432435,0C30.640092530408435,0,32.432432432432435,1.792339902024,32.432432432432435,4L32.432432432432435,14.899999999999999C32.432432432432435,17.107660097975998,30.640092530408435,18.9,28.432432432432435,18.9L0,18.9C0,18.9,0,18.9,0,18.9L0,0C0,0,0,0,0,0Z"/><g clip-path="url(#clip7)"><g class="mark-group role-scope" role="graphics-object" aria-roledescription="group mark container"><g transform="translate(0,0)"><path class="background" aria-hidden="true" d="M0,0h0v18.9h0Z"/><g><g class="mark-rect role-mark layer_0_marks" role="graphics-object" aria-roledescription="rect mark container"><path aria-label="Downloads: 2; country: TW; downloads: 2" role="graphics-symbol" aria-roledescription="bar" d="M0,0h32.432432432432435v18.9h-32.432432432432435Z" fill="rgb(171, 194, 241)"/></g></g><path class="foreground" aria-hidden="true" d="" display="none"/></g></g></g><path class="foreground" aria-hidden="true" d="" display="none"/></g><g transform="translate(0,215.55)"><path class="background" aria-hidden="true" d="M0,0L28.432432432432435,0C30.640092530408435,0,32.432432432432435,1.792339902024,32.432432432432435,4L32.432432432432435,14.899999999999999C32.432432432432435,17.107660097975998,30.640092530408435,18.9,28.432432432432435,18.9L0,18.9C0,18.9,0,18.9,0,18.9L0,0C0,0,0,0,0,0Z"/><g clip-path="url(#clip8)"><g class="mark-group role-scope" role="graphics-object" aria-roledescription="group mark container"><g transform="translate(0,0)"><path class="background" aria-hidden="true" d="M0,0h0v18.9h0Z"/><g><g class="mark-rect role-mark layer_0_marks" role="graphics-object" aria-roledescription="rect mark container"><path aria-label="Downloads: 2; country: GR; downloads: 2" role="graphics-symbol" aria-roledescription="bar" d="M0,0h32.432432432432435v18.9h-32.432432432432435Z" fill="rgb(171, 194, 241)"/></g></g><path class="foreground" aria-hidden="true" d="" display="none"/></g></g></g><path class="foreground" aria-hidden="true" d="" display="none"/></g><g transform="translate(0,245.55)"><path class="background" aria-hidden="true" d="M0,0L12.216216216216218,0C14.423876314192217,0,16.216216216216218,1.792339902024,16.216216216216218,4L16.216216216216218,14.899999999999999C16.216216216216218,17.107660097975998,14.423876314192217,18.9,12.216216216216218,18.9L0,18.9C0,18.9,0,18.9,0,18.9L0,0C0,0,0,0,0,0Z"/><g clip-path="url(#clip9)"><g class="mark-group role-scope" role="graphics-object" aria-roledescription="group mark container"><g transform="translate(0,0)"><path class="background" aria-hidden="true" d="M0,0h0v18.9h0Z"/><g><g class="mark-rect role-mark layer_0_marks" role="graphics-object" aria-roledescription="rect mark container"><path aria-label="Downloads: 1; country: SG; downloads: 1" role="graphics-symbol" aria-roledescription="bar" d="M0,0h16.216216216216218v18.9h-16.216216216216218Z" fill="rgb(174, 197, 242)"/></g></g><path class="foreground" aria-hidden="true" d="" display="none"/></g></g></g><path class="foreground" aria-hidden="true" d="" display="none"/></g><g transform="translate(0,275.55)"><path class="background" aria-hidden="true" d="M0,0L12.216216216216218,0C14.423876314192217,0,16.216216216216218,1.792339902024,16.216216216216218,4L16.216216216216218,14.899999999999999C16.216216216216218,17.107660097975998,14.423876314192217,18.9,12.216216216216218,18.9L0,18.9C0,18.9,0,18.9,0,18.9L0,0C0,0,0,0,0,0Z"/><g clip-path="url(#clip10)"><g class="mark-group role-scope" role="graphics-object" aria-roledescription="group mark container"><g transform="translate(0,0)"><path class="background" aria-hidden="true" d="M0,0h0v18.9h0Z"/><g><g class="mark-rect role-mark layer_0_marks" role="graphics-object" aria-roledescription="rect mark container"><path aria-label="Downloads: 1; country: BR; downloads: 1" role="graphics-symbol" aria-roledescription="bar" d="M0,0h16.216216216216218v18.9h-16.216216216216218Z" fill="rgb(174, 197, 242)"/></g></g><path class="foreground" aria-hidden="true" d="" display="none"/></g></g></g><path class="foreground" aria-hidden="true" d="" display="none"/></g><g transform="translate(0,305.55)"><path class="background" aria-hidden="true" d="M0,0L12.216216216216218,0C14.423876314192217,0,16.216216216216218,1.792339902024,16.216216216216218,4L16.216216216216218,14.899999999999999C16.216216216216218,17.107660097975998,14.423876314192217,18.9,12.216216216216218,18.9L0,18.9C0,18.9,0,18.9,0,18.9L0,0C0,0,0,0,0,0Z"/><g clip-path="url(#clip11)"><g class="mark-group role-scope" role="graphics-object" aria-roledescription="group mark container"><g transform="translate(0,0)"><path class="background" aria-hidden="true" d="M0,0h0v18.9h0Z"/><g><g class="mark-rect role-mark layer_0_marks" role="graphics-object" aria-roledescription="rect mark container"><path aria-label="Downloads: 1; country: HK; downloads: 1" role="graphics-symbol" aria-roledescription="bar" d="M0,0h16.216216216216218v18.9h-16.216216216216218Z" fill="rgb(174, 197, 242)"/></g></g><path class="foreground" aria-hidden="true" d="" display="none"/></g></g></g><path class="foreground" aria-hidden="true" d="" display="none"/></g><g transform="translate(0,335.55)"><path class="background" aria-hidden="true" d="M0,0L12.216216216216218,0C14.423876314192217,0,16.216216216216218,1.792339902024,16.216216216216218,4L16.216216216216218,14.899999999999999C16.216216216216218,17.107660097975998,14.423876314192217,18.9,12.216216216216218,18.9L0,18.9C0,18.9,0,18.9,0,18.9L0,0C0,0,0,0,0,0Z"/><g clip-path="url(#clip12)"><g class="mark-group role-scope" role="graphics-object" aria-roledescription="group mark container"><g transform="translate(0,0)"><path class="background" aria-hidden="true" d="M0,0h0v18.9h0Z"/><g><g class="mark-rect role-mark layer_0_marks" role="graphics-object" aria-roledescription="rect mark container"><path aria-label="Downloads: 1; country: GN; downloads: 1" role="graphics-symbol" aria-roledescription="bar" d="M0,0h16.216216216216218v18.9h-16.216216216216218Z" fill="rgb(174, 197, 242)"/></g></g><path class="foreground" aria-hidden="true" d="" display="none"/></g></g></g><path class="foreground" aria-hidden="true" d="" display="none"/></g><g transform="translate(0,365.55)"><path class="background" aria-hidden="true" d="M0,0L44.64864864864865,0C46.856308746624656,0,48.64864864864865,1.792339902024,48.64864864864865,4L48.64864864864865,14.899999999999999C48.64864864864865,17.107660097975998,46.856308746624656,18.9,44.64864864864865,18.9L0,18.9C0,18.9,0,18.9,0,18.9L0,0C0,0,0,0,0,0Z"/><g clip-path="url(#clip13)"><g class="mark-group role-scope" role="graphics-object" aria-roledescription="group mark container"><g transform="translate(0,0)"><path class="background" aria-hidden="true" d="M0,0h0v18.9h0Z"/><g><g class="mark-rect role-mark layer_0_marks" role="graphics-object" aria-roledescription="rect mark container"><path aria-label="Downloads: 3; country: Other; downloads: 3" role="graphics-symbol" aria-roledescription="bar" d="M0,0h48.64864864864865v18.9h-48.64864864864865Z" fill="rgb(167, 192, 240)"/></g></g><path class="foreground" aria-hidden="true" d="" display="none"/></g></g></g><path class="foreground" aria-hidden="true" d="" display="none"/></g></g><g class="mark-text role-mark layer_1_marks" role="graphics-object" aria-roledescription="text mark container"><text aria-label="Downloads: 34; country: CN; downloads: 34" role="graphics-symbol" aria-roledescription="text mark" text-anchor="start" transform="translate(557.3513513513514,19)" font-family="sans-serif" font-size="12px" font-weight="600" fill="#555">34</text><text aria-label="Downloads: 25; country: US; downloads: 25" role="graphics-symbol" aria-roledescription="text mark" text-anchor="start" transform="translate(411.4054054054054,49)" font-family="sans-serif" font-size="12px" font-weight="600" fill="#555">25</text><text aria-label="Downloads: 6; country: HU; downloads: 6" role="graphics-symbol" aria-roledescription="text mark" text-anchor="start" transform="translate(103.2972972972973,79)" font-family="sans-serif" font-size="12px" font-weight="600" fill="#555">6</text><text aria-label="Downloads: 4; country: FR; downloads: 4" role="graphics-symbol" aria-roledescription="text mark" text-anchor="start" transform="translate(70.86486486486487,109)" font-family="sans-serif" font-size="12px" font-weight="600" fill="#555">4</text><text aria-label="Downloads: 2; country: DE; downloads: 2" role="graphics-symbol" aria-roledescription="text mark" text-anchor="start" transform="translate(38.432432432432435,139)" font-family="sans-serif" font-size="12px" font-weight="600" fill="#555">2</text><text aria-label="Downloads: 2; country: KR; downloads: 2" role="graphics-symbol" aria-roledescription="text mark" text-anchor="start" transform="translate(38.432432432432435,169)" font-family="sans-serif" font-size="12px" font-weight="600" fill="#555">2</text><text aria-label="Downloads: 2; country: TW; downloads: 2" role="graphics-symbol" aria-roledescription="text mark" text-anchor="start" transform="translate(38.432432432432435,199)" font-family="sans-serif" font-size="12px" font-weight="600" fill="#555">2</text><text aria-label="Downloads: 2; country: GR; downloads: 2" role="graphics-symbol" aria-roledescription="text mark" text-anchor="start" transform="translate(38.432432432432435,229)" font-family="sans-serif" font-size="12px" font-weight="600" fill="#555">2</text><text aria-label="Downloads: 1; country: SG; downloads: 1" role="graphics-symbol" aria-roledescription="text mark" text-anchor="start" transform="translate(22.216216216216218,259)" font-family="sans-serif" font-size="12px" font-weight="600" fill="#555">1</text><text aria-label="Downloads: 1; country: BR; downloads: 1" role="graphics-symbol" aria-roledescription="text mark" text-anchor="start" transform="translate(22.216216216216218,289)" font-family="sans-serif" font-size="12px" font-weight="600" fill="#555">1</text><text aria-label="Downloads: 1; country: HK; downloads: 1" role="graphics-symbol" aria-roledescription="text mark" text-anchor="start" transform="translate(22.216216216216218,319)" font-family="sans-serif" font-size="12px" font-weight="600" fill="#555">1</text><text aria-label="Downloads: 1; country: GN; downloads: 1" role="graphics-symbol" aria-roledescription="text mark" text-anchor="start" transform="translate(22.216216216216218,349)" font-family="sans-serif" font-size="12px" font-weight="600" fill="#555">1</text><text aria-label="Downloads: 3; country: Other; downloads: 3" role="graphics-symbol" aria-roledescription="text mark" text-anchor="start" transform="translate(54.64864864864865,379)" font-family="sans-serif" font-size="12px" font-weight="600" fill="#555">3</text></g><g class="mark-group role-title"><g transform="translate(-58,-41)"><path class="background" aria-hidden="true" d="M0,0h0v0h0Z" pointer-events="none"/><g><g class="mark-text role-title-text" role="graphics-symbol" aria-roledescription="title" aria-label="Title text 'Mermaid Code — downloads by country/region (all-time)'" pointer-events="none"><text text-anchor="start" transform="translate(0,12)" font-family="sans-serif" font-size="15px" font-weight="600" fill="#000" opacity="1">Mermaid Code — downloads by country/region (all-time)</text></g><g class="mark-text role-title-subtitle" role="graphics-symbol" aria-roledescription="subtitle" aria-label="Subtitle text 'manual installer downloads from the release CDN, by client country/region'" pointer-events="none"><text text-anchor="start" transform="translate(0,27)" font-family="sans-serif" font-size="11px" fill="#888" opacity="1">manual installer downloads from the release CDN, by client country/region</text></g></g><path class="foreground" aria-hidden="true" d="" pointer-events="none" display="none"/></g></g></g><path class="foreground" aria-hidden="true" d="" display="none"/></g></g></g><defs><clipPath id="clip1"><path d="M0,0L547.3513513513514,0C549.5590114493274,0,551.3513513513514,1.792339902024,551.3513513513514,4L551.3513513513514,14.899999999999999C551.3513513513514,17.107660097975998,549.5590114493274,18.9,547.3513513513514,18.9L0,18.9C0,18.9,0,18.9,0,18.9L0,0C0,0,0,0,0,0Z"/></clipPath><clipPath id="clip2"><path d="M0,0L401.4054054054054,0C403.6130655033814,0,405.4054054054054,1.792339902024,405.4054054054054,4L405.4054054054054,14.899999999999999C405.4054054054054,17.107660097975998,403.6130655033814,18.9,401.4054054054054,18.9L0,18.9C0,18.9,0,18.9,0,18.9L0,0C0,0,0,0,0,0Z"/></clipPath><clipPath id="clip3"><path d="M0,0L93.2972972972973,0C95.50495739527331,0,97.2972972972973,1.792339902024,97.2972972972973,4L97.2972972972973,14.899999999999999C97.2972972972973,17.107660097975998,95.50495739527331,18.9,93.2972972972973,18.9L0,18.9C0,18.9,0,18.9,0,18.9L0,0C0,0,0,0,0,0Z"/></clipPath><clipPath id="clip4"><path d="M0,0L60.86486486486487,0C63.07252496284087,0,64.86486486486487,1.792339902024,64.86486486486487,4L64.86486486486487,14.899999999999999C64.86486486486487,17.107660097975998,63.07252496284087,18.9,60.86486486486487,18.9L0,18.9C0,18.9,0,18.9,0,18.9L0,0C0,0,0,0,0,0Z"/></clipPath><clipPath id="clip5"><path d="M0,0L28.432432432432435,0C30.640092530408435,0,32.432432432432435,1.792339902024,32.432432432432435,4L32.432432432432435,14.899999999999999C32.432432432432435,17.107660097975998,30.640092530408435,18.9,28.432432432432435,18.9L0,18.9C0,18.9,0,18.9,0,18.9L0,0C0,0,0,0,0,0Z"/></clipPath><clipPath id="clip6"><path d="M0,0L28.432432432432435,0C30.640092530408435,0,32.432432432432435,1.792339902024,32.432432432432435,4L32.432432432432435,14.899999999999999C32.432432432432435,17.107660097975998,30.640092530408435,18.9,28.432432432432435,18.9L0,18.9C0,18.9,0,18.9,0,18.9L0,0C0,0,0,0,0,0Z"/></clipPath><clipPath id="clip7"><path d="M0,0L28.432432432432435,0C30.640092530408435,0,32.432432432432435,1.792339902024,32.432432432432435,4L32.432432432432435,14.899999999999999C32.432432432432435,17.107660097975998,30.640092530408435,18.9,28.432432432432435,18.9L0,18.9C0,18.9,0,18.9,0,18.9L0,0C0,0,0,0,0,0Z"/></clipPath><clipPath id="clip8"><path d="M0,0L28.432432432432435,0C30.640092530408435,0,32.432432432432435,1.792339902024,32.432432432432435,4L32.432432432432435,14.899999999999999C32.432432432432435,17.107660097975998,30.640092530408435,18.9,28.432432432432435,18.9L0,18.9C0,18.9,0,18.9,0,18.9L0,0C0,0,0,0,0,0Z"/></clipPath><clipPath id="clip9"><path d="M0,0L12.216216216216218,0C14.423876314192217,0,16.216216216216218,1.792339902024,16.216216216216218,4L16.216216216216218,14.899999999999999C16.216216216216218,17.107660097975998,14.423876314192217,18.9,12.216216216216218,18.9L0,18.9C0,18.9,0,18.9,0,18.9L0,0C0,0,0,0,0,0Z"/></clipPath><clipPath id="clip10"><path d="M0,0L12.216216216216218,0C14.423876314192217,0,16.216216216216218,1.792339902024,16.216216216216218,4L16.216216216216218,14.899999999999999C16.216216216216218,17.107660097975998,14.423876314192217,18.9,12.216216216216218,18.9L0,18.9C0,18.9,0,18.9,0,18.9L0,0C0,0,0,0,0,0Z"/></clipPath><clipPath id="clip11"><path d="M0,0L12.216216216216218,0C14.423876314192217,0,16.216216216216218,1.792339902024,16.216216216216218,4L16.216216216216218,14.899999999999999C16.216216216216218,17.107660097975998,14.423876314192217,18.9,12.216216216216218,18.9L0,18.9C0,18.9,0,18.9,0,18.9L0,0C0,0,0,0,0,0Z"/></clipPath><clipPath id="clip12"><path d="M0,0L12.216216216216218,0C14.423876314192217,0,16.216216216216218,1.792339902024,16.216216216216218,4L16.216216216216218,14.899999999999999C16.216216216216218,17.107660097975998,14.423876314192217,18.9,12.216216216216218,18.9L0,18.9C0,18.9,0,18.9,0,18.9L0,0C0,0,0,0,0,0Z"/></clipPath><clipPath id="clip13"><path d="M0,0L44.64864864864865,0C46.856308746624656,0,48.64864864864865,1.792339902024,48.64864864864865,4L48.64864864864865,14.899999999999999C48.64864864864865,17.107660097975998,46.856308746624656,18.9,44.64864864864865,18.9L0,18.9C0,18.9,0,18.9,0,18.9L0,0C0,0,0,0,0,0Z"/></clipPath></defs></svg>